<svg width="121" height="20" viewBox="0 0 121 20" fill="none" xmlns="http://www.w3.org/2000/svg"><path d="M27.5139 0.638916H10.4358V19.3611H27.5139V0.638916Z" fill="#00B36F"></path><path d="M121 0.638916H28.7612V19.3611H121V0.638916Z" fill="#5A9371"></path><path d="M7.69021 2.40885C7.66884 2.68974 7.54083 2.9518 7.33244 3.14125C7.12406 3.33069 6.8511 3.43317 6.56959 3.42765C6.28807 3.42213 6.01934 3.30902 5.81854 3.11155C5.61773 2.91407 5.50009 2.6472 5.48975 2.36569C5.51111 2.0848 5.63912 1.82275 5.84751 1.6333C6.05589 1.44385 6.32885 1.34137 6.61037 1.34689C6.89188 1.35241 7.16062 1.46552 7.36142 1.66299C7.56222 1.86047 7.67986 2.12734 7.69021 2.40885Z" fill="#5A9371"></path><path d="M4.98755 5.47745C4.98755 5.6951 4.92293 5.90784 4.8019 6.0887C4.68087 6.26956 4.50888 6.41038 4.30774 6.49331C4.1066 6.57624 3.88538 6.59753 3.67212 6.55449C3.45887 6.51146 3.26319 6.40603 3.10991 6.25158C2.95663 6.09713 2.85266 5.90061 2.81117 5.68696C2.76968 5.47331 2.79256 5.25214 2.87689 5.05151C2.96122 4.85088 3.1032 4.67982 3.28484 4.56004C3.46648 4.44025 3.67959 4.37714 3.89713 4.37869C4.18532 4.38282 4.46025 4.50053 4.66221 4.70625C4.86417 4.91198 4.97685 5.1891 4.97579 5.47745" fill="#5A9371"></path><path d="M2.17518 8.65196C2.16393 8.9396 2.03991 9.21123 1.82995 9.40806C1.62 9.60489 1.34101 9.71107 1.05338 9.70363C0.912242 9.7008 0.773045 9.67018 0.643737 9.61353C0.514428 9.55687 0.397539 9.47529 0.299744 9.37345C0.201949 9.2716 0.125163 9.15148 0.0737701 9.01994C0.022377 8.88841 -0.00261651 8.74803 0.000216511 8.60683C0.00304954 8.46563 0.0336536 8.32637 0.0902815 8.197C0.146909 8.06764 0.228452 7.9507 0.330253 7.85286C0.432055 7.75502 0.552122 7.6782 0.683599 7.62678C0.815076 7.57537 0.955388 7.55036 1.09652 7.5532C1.23954 7.55422 1.38095 7.58348 1.51263 7.63931C1.64432 7.69513 1.76369 7.77641 1.86391 7.87849C1.96412 7.98058 2.0432 8.10145 2.09662 8.23418C2.15004 8.36691 2.17673 8.50888 2.17518 8.65196Z" fill="#5A9371"></path><path d="M13.8169 4.04913H15.8448C16.2223 4.04332 16.5991 4.08417 16.9666 4.17078C17.332 4.25514 17.6781 4.40829 17.9864 4.62205C18.2959 4.83669 18.55 5.12183 18.7277 5.45397C18.9325 5.85141 19.0337 6.29413 19.0219 6.7411C19.0373 7.16811 18.9441 7.59205 18.7513 7.97328C18.5716 8.30496 18.3212 8.593 18.0178 8.81698C17.7133 9.04289 17.3704 9.21174 17.0058 9.31534C16.6408 9.41968 16.2636 9.4751 15.884 9.48016H13.86L13.8169 4.04913ZM15.7193 8.63646C15.9833 8.63195 16.2461 8.60039 16.5037 8.54228C16.7636 8.48569 17.0108 8.38195 17.2333 8.2362C17.4486 8.08705 17.6259 7.88948 17.751 7.65935C17.8928 7.37484 17.959 7.05861 17.9432 6.7411C17.954 6.41092 17.8826 6.08324 17.7354 5.78753C17.6094 5.55661 17.4289 5.35995 17.2098 5.2146C16.9856 5.08193 16.7378 4.99398 16.4802 4.95561C16.2213 4.90904 15.9588 4.88541 15.6957 4.88497H14.8524L14.8799 8.65216L15.7193 8.63646Z" fill="white"></path><path d="M22.6342 5.1949C22.511 5.05303 22.3566 4.94156 22.1832 4.8692C22.0001 4.78428 21.8005 4.74137 21.5987 4.74362C21.4811 4.74443 21.3639 4.75892 21.2496 4.78679C21.1387 4.8128 21.0328 4.85652 20.9358 4.91629C20.8431 4.97443 20.7641 5.0521 20.7044 5.14389C20.648 5.24245 20.6183 5.35405 20.6183 5.46763C20.6183 5.58121 20.648 5.69282 20.7044 5.79137C20.7611 5.87947 20.836 5.9544 20.9241 6.01113C21.0301 6.07529 21.1433 6.12666 21.2614 6.16417C21.3948 6.21126 21.5399 6.25442 21.7007 6.29759C21.8615 6.34076 22.0655 6.41531 22.2577 6.48203C22.4489 6.54946 22.6297 6.64323 22.795 6.76064C22.9536 6.8765 23.0871 7.02335 23.1873 7.1923C23.297 7.39429 23.3511 7.62178 23.3442 7.85155C23.3532 8.1121 23.2979 8.37084 23.1834 8.60499C23.0806 8.81478 22.9302 8.99756 22.7441 9.13868C22.5515 9.28734 22.3316 9.39668 22.0969 9.46046C21.842 9.53505 21.5779 9.57336 21.3124 9.57426C20.9473 9.57677 20.5848 9.51432 20.2416 9.38982C19.9121 9.27715 19.6165 9.08273 19.3826 8.82475L20.0886 8.18511C20.2368 8.3708 20.428 8.51761 20.6456 8.61284C20.8585 8.71103 21.0897 8.76318 21.3242 8.76588C21.4444 8.76463 21.5641 8.75015 21.6811 8.72272C21.7975 8.69454 21.9079 8.64534 22.0066 8.57752C22.1023 8.51339 22.1826 8.42899 22.242 8.3303C22.3066 8.21991 22.3379 8.09316 22.3322 7.96536C22.3351 7.8394 22.298 7.71576 22.2263 7.61218C22.1493 7.51563 22.0548 7.43442 21.9478 7.37281C21.8213 7.30057 21.6871 7.24265 21.5477 7.20015L21.0457 7.04318C20.8735 6.99486 20.7045 6.93589 20.5397 6.86659C20.3739 6.79834 20.2192 6.70576 20.0808 6.5919C19.9425 6.47277 19.8291 6.32739 19.7474 6.16417C19.6546 5.96827 19.6102 5.75294 19.6179 5.5363C19.6094 5.28994 19.6677 5.04586 19.7866 4.82996C19.904 4.63395 20.0634 4.46642 20.2533 4.33944C20.4532 4.2053 20.6748 4.10704 20.9084 4.04905C21.1528 3.98357 21.4045 3.94929 21.6576 3.94702C21.9517 3.94942 22.2439 3.99571 22.5244 4.08437C22.8131 4.17007 23.0804 4.31584 23.3089 4.5121L22.6342 5.1949Z" fill="white"></path><path d="M20.9909 10.3276H21.9127L24.5368 16.0137H23.3208L22.7521 14.7148L20.1555 14.7345L19.6259 16.0412H18.4492L20.9909 10.3276ZM22.3716 13.8594L21.4302 11.5441L20.5124 13.8711L22.3716 13.8594Z" fill="white"></path><path d="M16.284 14.8642H13.4128V14.0087L16.0565 10.3318H17.3195V14.0323H18.1903V14.8642H17.3156V16.0414H16.284V14.8642ZM16.284 11.4698L14.4876 14.0323H16.2723L16.284 11.4698Z" fill="white"></path><path d="M39.6732 12.6706C39.3932 12.827 39.0759 12.9043 38.7554 12.8942C38.4212 12.8992 38.0919 12.8138 37.8023 12.647C37.5147 12.4774 37.2714 12.242 37.0923 11.9603C36.8889 11.6415 36.7392 11.2916 36.6491 10.9243C36.5436 10.4995 36.4922 10.0631 36.4961 9.62541C36.4918 9.18488 36.5445 8.74564 36.653 8.31866C36.7442 7.95045 36.8966 7.60023 37.1041 7.28269C37.2865 7.0047 37.5292 6.77133 37.814 6.59988C38.0999 6.43424 38.4251 6.34883 38.7554 6.35266C39.0632 6.3496 39.3682 6.41248 39.6497 6.5371C39.9174 6.66239 40.1464 6.85761 40.3126 7.10218L39.8105 7.63979C39.6931 7.46633 39.5357 7.32367 39.3516 7.22382C39.1836 7.13464 38.9965 7.08751 38.8064 7.08648C38.5772 7.08165 38.3526 7.15193 38.167 7.28661C37.9803 7.43446 37.8288 7.62215 37.7238 7.83599C37.597 8.09005 37.5072 8.36094 37.4571 8.64044C37.3961 8.96519 37.3659 9.29498 37.3669 9.62541C37.3659 9.95324 37.3961 10.2804 37.4571 10.6025C37.5079 10.8836 37.5991 11.1559 37.7277 11.4109C37.8332 11.6278 37.9893 11.8162 38.1827 11.9603C38.3685 12.098 38.5949 12.1698 38.826 12.1643C39.0357 12.1684 39.2415 12.1067 39.4144 11.9877C39.5742 11.8733 39.7079 11.7261 39.8066 11.5561L40.293 12.0741C40.1349 12.3193 39.9212 12.5236 39.6693 12.6706" fill="#F5F4ED"></path><path d="M48.2202 9.61747C48.2238 10.0666 48.1738 10.5145 48.0712 10.9517C47.9868 11.3195 47.8395 11.67 47.6358 11.9877C47.4619 12.2601 47.2286 12.4895 46.9533 12.6587C46.6755 12.8183 46.3597 12.8997 46.0394 12.8941C45.7179 12.8992 45.4009 12.8179 45.1215 12.6587C44.8431 12.4909 44.6069 12.2613 44.4312 11.9877C44.2303 11.669 44.0845 11.3188 43.9997 10.9517C43.8972 10.5145 43.8471 10.0666 43.8507 9.61747C43.8457 9.16723 43.8944 8.71801 43.9958 8.27933C44.0756 7.91316 44.2189 7.56384 44.4194 7.24728C44.5853 6.97824 44.8124 6.75232 45.0823 6.58802C45.3672 6.4282 45.6893 6.34694 46.0158 6.35257C46.3362 6.347 46.652 6.42837 46.9298 6.58802C47.2054 6.75163 47.4391 6.97738 47.6123 7.24728C47.8167 7.5631 47.9641 7.91244 48.0476 8.27933C48.1504 8.71784 48.2005 9.16707 48.1967 9.61747H48.2202ZM47.3416 9.61747C47.342 9.28333 47.3132 8.94981 47.2553 8.62073C47.2082 8.3395 47.1224 8.06614 47.0004 7.80843C46.9107 7.60145 46.7768 7.41662 46.6081 7.2669C46.4467 7.13489 46.2439 7.06402 46.0355 7.06676C45.8233 7.06326 45.6166 7.13405 45.451 7.2669C45.2717 7.41306 45.1282 7.59829 45.0313 7.80843C44.9121 8.06656 44.8289 8.33989 44.7842 8.62073C44.6744 9.27936 44.6744 9.95164 44.7842 10.6103C44.8289 10.8911 44.9121 11.1644 45.0313 11.4226C45.1271 11.6334 45.2708 11.8188 45.451 11.9641C45.6166 12.097 45.8233 12.1677 46.0355 12.1642C46.2439 12.167 46.4467 12.0961 46.6081 11.9641C46.7777 11.8152 46.9117 11.6301 47.0004 11.4226C47.1224 11.1649 47.2082 10.8915 47.2553 10.6103C47.313 10.2825 47.3419 9.95029 47.3416 9.61747Z" fill="#F5F4ED"></path><path d="M52.4014 12.745V6.50562H53.2094V12.0034H55.0098V12.745H52.4014Z" fill="#F5F4ED"></path><path d="M62.6465 9.61747C62.652 10.0667 62.602 10.5148 62.4975 10.9517C62.4128 11.3188 62.2669 11.669 62.066 11.9877C61.8921 12.2601 61.6588 12.4895 61.3835 12.6587C61.103 12.8133 60.7879 12.8943 60.4677 12.8943C60.1474 12.8943 59.8323 12.8133 59.5518 12.6587C59.2733 12.4909 59.0371 12.2613 58.8614 11.9877C58.6606 11.669 58.5147 11.3188 58.43 10.9517C58.3255 10.5148 58.2754 10.0667 58.2809 9.61747C58.276 9.16723 58.3247 8.71801 58.4261 8.27933C58.5063 7.91393 58.6482 7.56491 58.8458 7.24728C59.0196 6.97522 59.2564 6.74908 59.5361 6.58802C59.8209 6.4282 60.1431 6.34694 60.4696 6.35257C60.7899 6.347 61.1058 6.42837 61.3835 6.58802C61.6592 6.75163 61.8929 6.97738 62.066 7.24728C62.2676 7.56419 62.4135 7.91323 62.4975 8.27933C62.6022 8.71751 62.6523 9.16697 62.6465 9.61747ZM61.7915 9.61747C61.7938 9.28325 61.765 8.94955 61.7052 8.62073C61.6593 8.33969 61.5748 8.06634 61.4541 7.80843C61.3588 7.59956 61.2181 7.41457 61.0423 7.2669C60.8805 7.13548 60.678 7.06469 60.4696 7.06676C60.2573 7.06259 60.0504 7.13346 59.8852 7.2669C59.7059 7.41306 59.5623 7.59829 59.4655 7.80843C59.3427 8.06522 59.2594 8.33907 59.2184 8.62073C59.1086 9.27936 59.1086 9.95164 59.2184 10.6103C59.2594 10.8919 59.3427 11.1658 59.4655 11.4226C59.5612 11.6334 59.705 11.8188 59.8852 11.9641C60.0504 12.0975 60.2573 12.1684 60.4696 12.1642C60.678 12.1663 60.8805 12.0955 61.0423 11.9641C61.2189 11.8173 61.3598 11.6321 61.4541 11.4226C61.5748 11.1647 61.6593 10.8913 61.7052 10.6103C61.7648 10.2828 61.7937 9.95037 61.7915 9.61747Z" fill="#F5F4ED"></path><path d="M71.2015 12.745V7.58083H71.1741L69.7542 12.745H69.0246L67.6204 7.58083H67.5929V12.745H66.8438V6.50562H68.0362L69.3972 11.4579H69.4325L70.7701 6.50562H72.0135V12.745H71.2015Z" fill="#F5F4ED"></path><path d="M78.8382 9.46434C78.9661 9.49329 79.089 9.54089 79.203 9.60561C79.3402 9.68096 79.4614 9.78224 79.56 9.90384C79.6778 10.0417 79.7695 10.2 79.8306 10.3708C79.9068 10.5807 79.9441 10.8028 79.9404 11.0262C79.9492 11.306 79.8928 11.5841 79.7757 11.8385C79.6811 12.0343 79.5468 12.2084 79.3814 12.3496C79.2159 12.4907 79.023 12.596 78.8147 12.6586C78.6211 12.7155 78.4203 12.7446 78.2185 12.7449H76.4966V6.52515H78.0302C78.2228 6.52572 78.4148 6.54677 78.6029 6.58793C78.8011 6.63289 78.9889 6.71548 79.156 6.83123C79.3289 6.9558 79.4711 7.11819 79.5717 7.30605C79.6863 7.54298 79.7415 7.80428 79.7326 8.06734C79.7357 8.24905 79.7119 8.43022 79.662 8.60495C79.6167 8.74487 79.5505 8.87716 79.4658 8.99736C79.3906 9.10854 79.2963 9.20552 79.1873 9.28383C79.0854 9.35629 78.9747 9.41562 78.8579 9.46041L78.8382 9.46434ZM78.9559 8.16544C78.9621 8.00238 78.9313 7.84003 78.8657 7.69062C78.8151 7.57321 78.7381 7.469 78.6409 7.386C78.5437 7.303 78.4287 7.24343 78.3048 7.21187C78.1766 7.17971 78.0448 7.16388 77.9126 7.16478H77.2458V9.1818H77.94C78.0637 9.18222 78.1867 9.16369 78.3048 9.12686C78.4245 9.08864 78.5362 9.02879 78.6343 8.95027C78.7332 8.86359 78.8121 8.75648 78.8657 8.63634C78.9306 8.48809 78.9614 8.32718 78.9559 8.16544ZM79.1285 10.9791C79.1333 10.7921 79.0986 10.6062 79.0265 10.4336C78.9632 10.2952 78.8725 10.171 78.7598 10.0687C78.6527 9.97926 78.5286 9.91251 78.395 9.87245C78.2682 9.83193 78.1359 9.81077 78.0028 9.80966H77.2458V12.0857H78.0302C78.1753 12.0855 78.3195 12.063 78.4578 12.019C78.5859 11.9753 78.7044 11.9073 78.8069 11.8188C78.9112 11.7252 78.9918 11.6082 79.0422 11.4774C79.104 11.3188 79.1334 11.1493 79.1285 10.9791Z" fill="#F5F4ED"></path><path d="M84.8671 6.50171H84.0552V12.745H84.8671V6.50171Z" fill="#F5F4ED"></path><path d="M92.1037 12.7449L91.7586 11.2812H89.915L89.5463 12.7449H88.7266L90.3112 6.52515H91.3859L92.9549 12.7646L92.1037 12.7449ZM90.8525 7.25112H90.8172L90.0053 10.6651H91.637L90.8525 7.25112Z" fill="#F5F4ED"></path></svg>